<?xml version="1.0" encoding="UTF-8"?>
<svg xmlns="http://www.w3.org/2000/svg" xmlns:xlink="http://www.w3.org/1999/xlink" width="150px" height="135px" viewBox="0 0 111 135" version="1.1">
<defs>
<linearGradient id="linear0" gradientUnits="userSpaceOnUse" x1="26.648937" y1="20.603781" x2="135.665253" y2="114.397667" gradientTransform="matrix(0.600404,0,0,0.608541,-16.000138,-12.538254)">
<stop offset="0" style="stop-color:rgb(35.294118%,62.352941%,83.137255%);stop-opacity:1;"/>
<stop offset="1" style="stop-color:rgb(18.823529%,41.176471%,59.607843%);stop-opacity:1;"/>
</linearGradient>
<linearGradient id="linear1" gradientUnits="userSpaceOnUse" x1="150.961105" y1="192.351761" x2="112.031441" y2="137.272995" gradientTransform="matrix(0.600404,0,0,0.608541,-16.000138,-12.538254)">
<stop offset="0" style="stop-color:rgb(100%,83.137255%,23.137255%);stop-opacity:1;"/>
<stop offset="1" style="stop-color:rgb(100%,90.980392%,45.098039%);stop-opacity:1;"/>
</linearGradient>
<filter id="alpha" filterUnits="objectBoundingBox" x="0%" y="0%" width="100%" height="100%">
  <feColorMatrix type="matrix" in="SourceGraphic" values="0 0 0 0 1 0 0 0 0 1 0 0 0 0 1 0 0 0 1 0"/>
</filter>
<mask id="mask0">
  <g filter="url(#alpha)">
<rect x="0" y="0" width="111" height="135" style="fill:rgb(0%,0%,0%);fill-opacity:0.443137;stroke:none;"/>
  </g>
</mask>
<radialGradient id="radial0" gradientUnits="userSpaceOnUse" cx="61.518883" cy="132.285751" fx="61.518883" fy="132.285751" r="29.036913" gradientTransform="matrix(0.0000000186678,-0.257086,1.125655,0.000000406237,-89.334506,152.637863)">
<stop offset="0" style="stop-color:rgb(72.156863%,72.156863%,72.156863%);stop-opacity:0.498039;"/>
<stop offset="1" style="stop-color:rgb(49.803922%,49.803922%,49.803922%);stop-opacity:0;"/>
</radialGradient>
<clipPath id="clip1">
  <rect x="0" y="0" width="111" height="135"/>
</clipPath>
<g id="surface5" clip-path="url(#clip1)">
<path style=" stroke:none;fill-rule:nonzero;fill:url(#radial0);" d="M 97.921875 136.824219 C 97.921875 132.699219 80.753906 129.355469 59.574219 129.355469 C 38.394531 129.355469 21.222656 132.699219 21.222656 136.824219 C 21.222656 140.945312 38.394531 144.289062 59.574219 144.289062 C 80.753906 144.289062 97.921875 140.945312 97.921875 136.824219 Z M 97.921875 136.824219 "/>
</g>
</defs>
<g id="surface1">
<path style=" stroke:none;fill-rule:nonzero;fill:url(#linear0);" d="M 58.617188 0 C 53.722656 0.0234375 49.050781 0.441406 44.941406 1.171875 C 32.832031 3.320312 30.632812 7.816406 30.632812 16.105469 L 30.632812 27.054688 L 59.25 27.054688 L 59.25 30.703125 L 19.890625 30.703125 C 11.574219 30.703125 4.292969 35.722656 2.015625 45.269531 C -0.613281 56.210938 -0.730469 63.039062 2.015625 74.464844 C 4.046875 82.96875 8.90625 89.03125 17.222656 89.03125 L 27.0625 89.03125 L 27.0625 75.90625 C 27.0625 66.421875 35.234375 58.058594 44.941406 58.058594 L 73.523438 58.058594 C 81.480469 58.058594 87.832031 51.480469 87.832031 43.460938 L 87.832031 16.105469 C 87.832031 8.320312 81.289062 2.472656 73.523438 1.171875 C 68.609375 0.351562 63.507812 -0.0234375 58.617188 0 Z M 43.140625 8.808594 C 46.09375 8.808594 48.507812 11.269531 48.507812 14.296875 C 48.507812 17.316406 46.09375 19.753906 43.140625 19.753906 C 40.171875 19.753906 37.769531 17.316406 37.769531 14.296875 C 37.769531 11.269531 40.171875 8.808594 43.140625 8.808594 Z M 43.140625 8.808594 "/>
<path style=" stroke:none;fill-rule:nonzero;fill:url(#linear1);" d="M 91.402344 30.703125 L 91.402344 43.460938 C 91.402344 53.351562 83.050781 61.675781 73.523438 61.675781 L 44.941406 61.675781 C 37.109375 61.675781 30.632812 68.402344 30.632812 76.273438 L 30.632812 103.628906 C 30.632812 111.414062 37.375 115.992188 44.941406 118.226562 C 54 120.898438 62.6875 121.382812 73.523438 118.226562 C 80.730469 116.132812 87.832031 111.917969 87.832031 103.628906 L 87.832031 92.679688 L 59.25 92.679688 L 59.25 89.03125 L 102.140625 89.03125 C 110.457031 89.03125 113.558594 83.207031 116.449219 74.464844 C 119.4375 65.464844 119.3125 56.8125 116.449219 45.269531 C 114.394531 36.957031 110.46875 30.703125 102.140625 30.703125 Z M 75.324219 99.980469 C 78.292969 99.980469 80.695312 102.417969 80.695312 105.4375 C 80.695312 108.464844 78.292969 110.925781 75.324219 110.925781 C 72.371094 110.925781 69.957031 108.464844 69.957031 105.4375 C 69.957031 102.417969 72.371094 99.980469 75.324219 99.980469 Z M 75.324219 99.980469 "/>
<use xlink:href="#surface5" mask="url(#mask0)"/>
</g>
</svg>
