<?xml version="1.0" encoding="UTF-8"?>
<svg xmlns="http://www.w3.org/2000/svg" xmlns:xlink="http://www.w3.org/1999/xlink" width="150px" height="100px" viewBox="0 0 150 100" version="1.1">
<g id="surface1">
<path style=" stroke:none;fill-rule:nonzero;fill:rgb(76.862746%,7.058824%,18.039216%);fill-opacity:1;" d="M 49.003906 66.433594 L 42.425781 66.433594 L 42.425781 99.359375 L 49.003906 99.359375 Z M 49.003906 66.433594 "/>
<path style=" stroke:none;fill-rule:nonzero;fill:rgb(76.862746%,7.058824%,18.039216%);fill-opacity:1;" d="M 102.035156 75.867188 C 101.769531 75.695312 99.65625 74.109375 96.511719 74.109375 C 92.25 74.109375 89.300781 77.851562 89.300781 82.890625 C 89.300781 87.785156 92.125 91.679688 96.511719 91.679688 C 99.601562 91.679688 101.75 90.132812 102.035156 89.933594 L 102.035156 98.769531 C 101.21875 99.0625 98.972656 99.941406 96.035156 99.941406 C 88.644531 99.941406 82.15625 93.5 82.15625 82.890625 C 82.15625 73.0625 88.03125 65.851562 96.035156 65.851562 C 99.132812 65.851562 101.417969 66.800781 102.035156 67.03125 Z M 102.035156 75.867188 "/>
<path style=" stroke:none;fill-rule:nonzero;fill:rgb(76.862746%,7.058824%,18.039216%);fill-opacity:1;" d="M 33.382812 75.867188 C 33.117188 75.695312 31.003906 74.109375 27.859375 74.109375 C 23.597656 74.109375 20.648438 77.851562 20.648438 82.890625 C 20.648438 87.785156 23.472656 91.679688 27.859375 91.679688 C 30.949219 91.679688 33.097656 90.132812 33.382812 89.933594 L 33.382812 98.769531 C 32.566406 99.0625 30.320312 99.941406 27.382812 99.941406 C 19.992188 99.941406 13.503906 93.5 13.503906 82.890625 C 13.503906 73.0625 19.378906 65.851562 27.382812 65.851562 C 30.480469 65.851562 32.765625 66.800781 33.382812 67.03125 Z M 33.382812 75.867188 "/>
<path style=" stroke:none;fill-rule:nonzero;fill:rgb(76.862746%,7.058824%,18.039216%);fill-opacity:1;" d="M 122.726562 74.234375 C 118.824219 74.234375 115.925781 78.113281 115.925781 82.890625 C 115.925781 87.683594 118.824219 91.558594 122.726562 91.558594 C 126.625 91.558594 129.53125 87.683594 129.53125 82.890625 C 129.53125 78.113281 126.625 74.234375 122.726562 74.234375 M 136.5 82.890625 C 136.5 92.308594 130.742188 99.941406 122.726562 99.941406 C 114.710938 99.941406 108.960938 92.308594 108.960938 82.890625 C 108.960938 73.488281 114.710938 65.851562 122.726562 65.851562 C 130.742188 65.851562 136.5 73.488281 136.5 82.890625 "/>
<path style=" stroke:none;fill-rule:nonzero;fill:rgb(76.862746%,7.058824%,18.039216%);fill-opacity:1;" d="M 73.945312 73.917969 C 73.847656 73.878906 71.078125 72.914062 68.804688 72.914062 C 66.167969 72.914062 64.734375 74.027344 64.734375 75.609375 C 64.734375 77.613281 66.667969 78.316406 67.75 78.746094 L 69.5625 79.476562 C 73.832031 81.191406 75.777344 84.882812 75.777344 88.894531 C 75.777344 97.164062 70.019531 99.941406 64.984375 99.941406 C 61.488281 99.941406 58.210938 99.128906 57.886719 99.046875 L 57.886719 91.46875 C 58.46875 91.652344 61.226562 92.691406 64.097656 92.691406 C 67.371094 92.691406 68.875 91.484375 68.875 89.617188 C 68.875 87.949219 67.574219 86.988281 65.941406 86.339844 C 65.542969 86.167969 64.945312 85.933594 64.539062 85.765625 C 60.875 84.300781 57.820312 81.582031 57.820312 76.132812 C 57.820312 69.976562 61.472656 65.84375 67.535156 65.84375 C 70.734375 65.84375 73.75 66.824219 73.945312 66.886719 Z M 73.945312 73.917969 "/>
<path style=" stroke:none;fill-rule:nonzero;fill:rgb(8.235294%,28.627452%,36.470589%);fill-opacity:1;" d="M 6.53125 31.054688 C 6.53125 28.785156 5.066406 26.945312 3.265625 26.945312 C 1.46875 26.945312 0 28.785156 0 31.054688 L 0 39.691406 C 0 41.976562 1.46875 43.820312 3.265625 43.820312 C 5.066406 43.820312 6.53125 41.976562 6.53125 39.691406 Z M 6.53125 31.054688 "/>
<path style=" stroke:none;fill-rule:nonzero;fill:rgb(8.235294%,28.627452%,36.470589%);fill-opacity:1;" d="M 24.46875 19.707031 C 24.46875 17.4375 23 15.597656 21.203125 15.597656 C 19.402344 15.597656 17.9375 17.4375 17.9375 19.707031 L 17.9375 39.695312 C 17.9375 41.976562 19.402344 43.816406 21.203125 43.816406 C 23 43.816406 24.46875 41.976562 24.46875 39.695312 Z M 24.46875 19.707031 "/>
<path style=" stroke:none;fill-rule:nonzero;fill:rgb(8.235294%,28.627452%,36.470589%);fill-opacity:1;" d="M 42.402344 4.1875 C 42.402344 1.917969 40.9375 0.078125 39.140625 0.078125 C 37.339844 0.078125 35.871094 1.917969 35.871094 4.1875 L 35.871094 47.90625 C 35.871094 50.1875 37.339844 52.03125 39.140625 52.03125 C 40.9375 52.03125 42.402344 50.1875 42.402344 47.90625 Z M 42.402344 4.1875 "/>
<path style=" stroke:none;fill-rule:nonzero;fill:rgb(8.235294%,28.627452%,36.470589%);fill-opacity:1;" d="M 60.339844 19.707031 C 60.339844 17.4375 58.875 15.597656 57.074219 15.597656 C 55.273438 15.597656 53.808594 17.4375 53.808594 19.707031 L 53.808594 39.695312 C 53.808594 41.976562 55.273438 43.816406 57.074219 43.816406 C 58.875 43.816406 60.339844 41.976562 60.339844 39.695312 Z M 60.339844 19.707031 "/>
<path style=" stroke:none;fill-rule:nonzero;fill:rgb(8.235294%,28.627452%,36.470589%);fill-opacity:1;" d="M 78.253906 31.054688 C 78.253906 28.785156 76.800781 26.945312 75.011719 26.945312 C 73.210938 26.945312 71.746094 28.785156 71.746094 31.054688 L 71.746094 39.691406 C 71.746094 41.976562 73.210938 43.820312 75.011719 43.820312 C 76.800781 43.820312 78.253906 41.976562 78.253906 39.691406 Z M 78.253906 31.054688 "/>
<path style=" stroke:none;fill-rule:nonzero;fill:rgb(8.235294%,28.627452%,36.470589%);fill-opacity:1;" d="M 78.265625 31.054688 C 78.265625 28.785156 76.796875 26.945312 75 26.945312 C 73.203125 26.945312 71.734375 28.785156 71.734375 31.054688 L 71.734375 39.691406 C 71.734375 41.976562 73.203125 43.820312 75 43.820312 C 76.796875 43.820312 78.265625 41.976562 78.265625 39.691406 Z M 78.265625 31.054688 "/>
<path style=" stroke:none;fill-rule:nonzero;fill:rgb(8.235294%,28.627452%,36.470589%);fill-opacity:1;" d="M 96.199219 19.707031 C 96.199219 17.4375 94.734375 15.597656 92.933594 15.597656 C 91.136719 15.597656 89.667969 17.4375 89.667969 19.707031 L 89.667969 39.695312 C 89.667969 41.976562 91.136719 43.816406 92.933594 43.816406 C 94.734375 43.816406 96.199219 41.976562 96.199219 39.695312 Z M 96.199219 19.707031 "/>
<path style=" stroke:none;fill-rule:nonzero;fill:rgb(8.235294%,28.627452%,36.470589%);fill-opacity:1;" d="M 114.136719 4.1875 C 114.136719 1.917969 112.667969 0.078125 110.871094 0.078125 C 109.070312 0.078125 107.605469 1.917969 107.605469 4.1875 L 107.605469 47.90625 C 107.605469 50.1875 109.070312 52.03125 110.871094 52.03125 C 112.667969 52.03125 114.136719 50.1875 114.136719 47.90625 Z M 114.136719 4.1875 "/>
<path style=" stroke:none;fill-rule:nonzero;fill:rgb(8.235294%,28.627452%,36.470589%);fill-opacity:1;" d="M 132.074219 19.707031 C 132.074219 17.4375 130.605469 15.597656 128.808594 15.597656 C 127.007812 15.597656 125.542969 17.4375 125.542969 19.707031 L 125.542969 39.695312 C 125.542969 41.976562 127.007812 43.816406 128.808594 43.816406 C 130.605469 43.816406 132.074219 41.976562 132.074219 39.695312 Z M 132.074219 19.707031 "/>
<path style=" stroke:none;fill-rule:nonzero;fill:rgb(8.235294%,28.627452%,36.470589%);fill-opacity:1;" d="M 149.988281 31.054688 C 149.988281 28.785156 148.53125 26.945312 146.742188 26.945312 C 144.945312 26.945312 143.476562 28.785156 143.476562 31.054688 L 143.476562 39.691406 C 143.476562 41.976562 144.945312 43.820312 146.742188 43.820312 C 148.53125 43.820312 149.988281 41.976562 149.988281 39.691406 Z M 149.988281 31.054688 "/>
<path style=" stroke:none;fill-rule:nonzero;fill:rgb(76.862746%,7.058824%,18.039216%);fill-opacity:1;" d="M 146.238281 95.023438 L 146.238281 95.539062 L 145.074219 95.539062 L 145.074219 99.355469 L 144.597656 99.355469 L 144.597656 95.539062 L 143.429688 95.539062 L 143.429688 95.023438 Z M 146.238281 95.023438 "/>
<path style=" stroke:none;fill-rule:nonzero;fill:rgb(76.862746%,7.058824%,18.039216%);fill-opacity:1;" d="M 146.480469 95.023438 L 147.230469 95.023438 L 148.253906 98.578125 L 148.273438 98.578125 L 149.265625 95.023438 L 150 95.023438 L 150 99.355469 L 149.511719 99.355469 L 149.511719 95.804688 L 149.492188 95.804688 L 148.453125 99.355469 L 148 99.355469 L 146.984375 95.804688 L 146.960938 95.804688 L 146.960938 99.355469 L 146.480469 99.355469 Z M 146.480469 95.023438 "/>
</g>
</svg>
