<?xml version="1.0" encoding="UTF-8"?>
<svg xmlns="http://www.w3.org/2000/svg" xmlns:xlink="http://www.w3.org/1999/xlink" width="150px" height="150px" viewBox="0 0 150 150" version="1.1">
<defs>
<linearGradient id="linear0" gradientUnits="userSpaceOnUse" x1="40.7803" y1="17.813499" x2="154.952194" y2="180.867905" gradientTransform="matrix(0.757576,0,0,0.757576,0,0)">
<stop offset="0.309" style="stop-color:rgb(18.431373%,70.588235%,91.372549%);stop-opacity:1;"/>
<stop offset="0.4731" style="stop-color:rgb(0%,56.078431%,79.215686%);stop-opacity:1;"/>
<stop offset="0.7645" style="stop-color:rgb(0%,34.509804%,60%);stop-opacity:1;"/>
<stop offset="0.8989" style="stop-color:rgb(0%,27.058824%,52.941176%);stop-opacity:1;"/>
</linearGradient>
</defs>
<g id="surface1">
<path style=" stroke:none;fill-rule:nonzero;fill:url(#linear0);" d="M 150.320312 75.117188 C 150.320312 116.65625 116.175781 150.324219 74.046875 150.324219 C 38.234375 150.324219 8.203125 125.996094 0 93.1875 C 14.925781 93.019531 29.085938 89.730469 41.863281 83.988281 L 41.863281 54.71875 C 41.863281 52.398438 41.046875 50.699219 39.414062 49.628906 C 37.785156 48.5625 34.886719 48.023438 30.71875 48.023438 L 30.71875 45.3125 C 36.242188 45.128906 41.3125 44.808594 45.917969 44.351562 C 50.527344 43.894531 54.5 43.207031 57.839844 42.289062 L 57.910156 84.800781 C 57.910156 87.210938 57.910156 89.839844 57.910156 92.695312 C 57.910156 95.46875 57.867188 98.1875 57.777344 100.863281 C 57.683594 103.542969 57.546875 106.042969 57.367188 108.359375 C 57.183594 110.679688 56.957031 112.644531 56.683594 114.246094 C 61.21875 116.839844 66.246094 118.980469 71.777344 120.679688 C 77.304688 122.375 82.46875 123.21875 87.273438 123.21875 C 91.351562 123.21875 95.292969 122.617188 99.101562 121.410156 C 102.90625 120.207031 106.285156 118.445312 109.226562 116.113281 C 112.171875 113.792969 114.554688 110.941406 116.367188 107.535156 C 118.179688 104.140625 119.085938 100.292969 119.085938 96 C 119.085938 92.074219 118.40625 88.449219 117.042969 85.140625 C 115.683594 81.832031 113.777344 78.980469 111.324219 76.558594 C 108.871094 74.144531 105.972656 72.25 102.613281 70.863281 C 99.253906 69.472656 95.582031 68.78125 91.585938 68.78125 C 88.589844 68.78125 85.53125 69.300781 82.402344 70.332031 C 79.265625 71.371094 76.433594 72.652344 73.890625 74.179688 L 73.890625 61.527344 C 87.628906 47.371094 97.296875 29.351562 101.019531 9.28125 C 84.019531 2.160156 64.3125 1.234375 45.679688 8.210938 C 24.976562 15.957031 9.835938 31.859375 2.582031 50.800781 C 9.566406 30.40625 25.402344 13.144531 47.398438 4.90625 C 65.765625 -1.960938 84.953125 -1.359375 101.710938 5.097656 C 101.714844 5.078125 101.71875 5.0625 101.722656 5.046875 C 130.160156 15.96875 150.320312 43.214844 150.320312 75.117188 Z M 76.210938 113.632812 C 78.289062 117.164062 81.824219 118.925781 86.808594 118.925781 C 91.78125 118.925781 95.316406 117.164062 97.402344 113.632812 C 99.484375 110.105469 100.523438 104.550781 100.523438 96.957031 C 100.523438 89.367188 99.484375 83.808594 97.402344 80.28125 C 95.316406 76.753906 91.78125 74.992188 86.808594 74.992188 C 81.820312 74.992188 78.289062 76.753906 76.210938 80.28125 C 74.128906 83.808594 73.085938 89.367188 73.085938 96.957031 C 73.085938 104.550781 74.128906 110.105469 76.210938 113.632812 Z M 56.335938 33.839844 C 58.453125 31.804688 59.507812 29.257812 59.507812 26.199219 C 59.507812 23.140625 58.453125 20.597656 56.335938 18.558594 C 54.230469 16.523438 51.664062 15.5 48.664062 15.5 C 45.65625 15.5 43.09375 16.523438 40.984375 18.558594 C 38.867188 20.597656 37.816406 23.140625 37.816406 26.199219 C 37.816406 29.257812 38.867188 31.804688 40.984375 33.839844 C 43.09375 35.878906 45.65625 36.898438 48.664062 36.898438 C 51.664062 36.898438 54.230469 35.878906 56.335938 33.839844 Z M 56.335938 33.839844 "/>
</g>
</svg>
